<svg id="dribbble" xmlns="http://www.w3.org/2000/svg" width="57" height="57" viewBox="0 0 57 57">
  <circle id="circle" style="fill:none;  stroke-width:3px; stroke:#4eacdd;" cx="28.5" cy="28.5" r="25"/>
  <path id="dribble_icon" data-name="dribble icon" fill="#4eacdd" style="fill-rule:evenodd;" d="M493.5,2537a9.5,9.5,0,1,0,9.5,9.5A9.509,9.509,0,0,0,493.5,2537Zm4.534,16.24a35,35,0,0,0-1.577-5.78,11.861,11.861,0,0,1,5.054.34A8.122,8.122,0,0,1,498.032,2553.24Zm-2.071-7.06c-0.057-.14-0.115-0.28-0.175-0.42-0.168-.4-0.349-0.79-0.538-1.18a10.775,10.775,0,0,0,4.531-3.2,8.08,8.08,0,0,1,1.832,5.06A18.839,18.839,0,0,0,495.961,2546.18Zm-1.337-2.8a42.492,42.492,0,0,0-3.027-4.75,7.948,7.948,0,0,1,1.9-.23,8.042,8.042,0,0,1,5.379,2.05A9.3,9.3,0,0,1,494.624,2543.38Zm-9.068,1.47a8.133,8.133,0,0,1,4.493-5.68,51.39,51.39,0,0,1,3.008,4.69A29.913,29.913,0,0,1,485.556,2544.85Zm8.171,0.26c0.233,0.46.454,0.92,0.658,1.38-0.107.03-.214,0.06-0.32,0.1a12.838,12.838,0,0,0-6.595,5.35,8.085,8.085,0,0,1-2.086-5.43c0-.08,0-0.16,0-0.24A30.464,30.464,0,0,0,493.727,2545.11Zm1.156,2.74c0.018-.01.036-0.01,0.054-0.02a33.805,33.805,0,0,1,1.731,6.15,7.989,7.989,0,0,1-3.17.65,8.085,8.085,0,0,1-4.98-1.71A11.094,11.094,0,0,1,494.883,2547.85Z" transform="translate(-465.5 -2518.5)"/>
</svg>
