<svg id="ipad_flat_" data-name="ipad flat " xmlns="http://www.w3.org/2000/svg" width="338.062" height="576.905" viewBox="0 0 338.062 576.905">
  <defs>
    <style>
      .cls-1 {
        fill: #474e5d;
      }

      .cls-1, .cls-2, .cls-3, .cls-4 {
        fill-rule: evenodd;
      }

      .cls-2 {
        fill: #fee9a3;
      }

      .cls-3 {
        fill: #a5a5a5;
      }

      .cls-4 {
        fill: #f6f6f6;
      }
    </style>
  </defs>
  <path id="device" class="cls-1" d="M940.38,802.115h370.16a18.443,18.443,0,0,1,18.44,18.439V1360.58a18.445,18.445,0,0,1-18.44,18.44H940.38a18.443,18.443,0,0,1-18.439-18.44V820.554A18.44,18.44,0,0,1,940.38,802.115Z" transform="translate(-921.938 -802.125)"/>
  <path id="overlay" class="cls-2" d="M948.447,853.744H1302.7V1327.62H948.447V853.744Z" transform="translate(-921.938 -802.125)"/>
  <path id="camera" class="cls-3" d="M1125.21,825.03a3.284,3.284,0,1,1-3.28,3.284A3.286,3.286,0,0,1,1125.21,825.03Z" transform="translate(-921.938 -802.125)"/>
  <path id="back_button" data-name="back button" class="cls-4" d="M1125.34,1340.28a13.675,13.675,0,1,1-13.67,13.68A13.68,13.68,0,0,1,1125.34,1340.28Z" transform="translate(-921.938 -802.125)"/>
</svg>
