<svg id="iphone5" xmlns="http://www.w3.org/2000/svg" width="227.344" height="480.968" viewBox="0 0 227.344 480.968">
  <defs>
    <style>
      .cls-1 {
        fill: #474e5d;
      }

      .cls-1, .cls-3, .cls-4, .cls-5 {
        fill-rule: evenodd;
      }

      .cls-2, .cls-3 {
        fill: #a5a4a4;
      }

      .cls-4 {
        fill: #f6f6f6;
      }

      .cls-5 {
        fill: #f3787a;
      }
    </style>
  </defs>
  <path id="device" class="cls-1" d="M262.917,383.441H426.433a31.906,31.906,0,0,1,31.906,31.906V832.513a31.905,31.905,0,0,1-31.906,31.9H262.917a31.905,31.905,0,0,1-31.906-31.9V415.347A31.906,31.906,0,0,1,262.917,383.441Z" transform="translate(-231 -383.438)"/>
  <circle id="camera" class="cls-2" cx="113.469" cy="23.75" r="4.188"/>
  <path id="speaker" class="cls-3" d="M327.326,420.931h33.9a4.188,4.188,0,0,1,0,8.375h-33.9A4.188,4.188,0,0,1,327.326,420.931Z" transform="translate(-231 -383.438)"/>
  <path id="back_button" data-name="back button" class="cls-4" d="M344.276,809.006a20.739,20.739,0,1,1-20.739,20.738A20.739,20.739,0,0,1,344.276,809.006Z" transform="translate(-231 -383.438)"/>
  <path id="overlay" class="cls-5" d="M244.571,449.646h199.41V798.613H244.571V449.646Z" transform="translate(-231 -383.438)"/>
</svg>
