<svg id="twitter" xmlns="http://www.w3.org/2000/svg" width="57" height="57" viewBox="0 0 57 57">
  <circle id="circle" style="fill:none;  stroke-width:3px; stroke:#545454;" cx="28.5" cy="28.5" r="25"/>
  <path id="twitter_icon" data-name="twitter icon" fill="#545454" style="fill-rule:evenodd;" d="M687.79,2540.88a6.353,6.353,0,0,1-2.963.82,3.257,3.257,0,0,0,2.084-2.73,4.79,4.79,0,0,1-2.83,1.5c-0.126-.2-0.251-0.38-0.37-0.54-1.643-2.23-4.71-3.35-7-2.17q0.242-.225.5-0.45c0.224-.2,1.664-1.06,1.2-1.52-0.4-.41-1.943,1.19-2.254,1.44a2,2,0,0,0,.917-1.56,4.053,4.053,0,0,0-1.59,1.72,1.49,1.49,0,0,0,.077-0.91c-1.422,2-1.551,4.96-1.5,7.75a10.008,10.008,0,0,0-2.518-.81,52.011,52.011,0,0,0-7.585-.37,3.744,3.744,0,0,0,3.415,2.38,5.96,5.96,0,0,0-1.469.8c0.666,1.07,1.739,1.74,3.817,1.45a2.456,2.456,0,0,0-1.449,1.37,3.116,3.116,0,0,0,3.7.34c-1.6,1.6.165,2.73,1.643,1.88a7.055,7.055,0,0,1-9.221,3.91c9.786,6.33,22.127-2.68,20.844-11.96A4.088,4.088,0,0,0,687.79,2540.88Z" transform="translate(-647.5 -2518.5)"/>
</svg>
